# xmcd
#
# Track frame offsets:
#	150
#	19500
#	43297
#	63304
#	81615
#	100622
#	125297
#	143687
#	172362
#
# Disc length: 2387 seconds
#
# Revision: 0
# Processed by: cddbd v1.5.2PL0 Copyright (c) Steve Scherf et al.
# Submitted via: EZCDAudioConverter 7.0.5.1
#
DISCID=7a095109
DTITLE=Valentine Brothers - Have A Good Time
DYEAR=1984
DGENRE=R&B
TTITLE0=I Thank You
TTITLE1=When (I Love You)
TTITLE2=Lonely Nights
TTITLE3=Have A Good Time
TTITLE4=She's So Bad
TTITLE5=Computer Boogie
TTITLE6=Don't Bother Me
TTITLE7=I Know You Need Love
TTITLE8=Reprise - I Know You Need Love (Dedication)
EXTD=
EXTT0=
EXTT1=
EXTT2=
EXTT3=
EXTT4=
EXTT5=
EXTT6=
EXTT7=
EXTT8=
PLAYORDER=
